<svg xmlns="http://www.w3.org/2000/svg" version="1.1" xmlns:xlink="http://www.w3.org/1999/xlink" width="192" height="192"><svg width="192" height="192" viewBox="0 0 192 192" fill="none" xmlns="http://www.w3.org/2000/svg">
<g clip-path="url(#clip0_41_35)">
<path fill-rule="evenodd" clip-rule="evenodd" d="M96 90.8571H104.496C113.28 90.8571 118.022 101.163 112.303 107.839L103.982 117.543C104.881 123.3 107.919 128.505 112.487 132.12C117.056 135.736 122.82 137.496 128.629 137.048C134.438 136.601 139.865 133.98 143.826 129.707C147.787 125.435 149.992 119.826 150 114C150 111.954 150.813 109.992 152.259 108.545C153.706 107.098 155.668 106.286 157.714 106.286C159.76 106.286 161.722 107.098 163.169 108.545C164.616 109.992 165.429 111.954 165.429 114C165.429 122.095 162.881 129.986 158.148 136.553C153.414 143.12 146.735 148.032 139.054 150.592C131.374 153.152 123.084 153.231 115.356 150.817C107.629 148.403 100.857 143.619 96 137.143C91.1427 143.619 84.3708 148.403 76.6436 150.817C68.9164 153.231 60.6255 153.152 52.9455 150.592C45.2654 148.032 38.5856 143.12 33.8521 136.553C29.1186 129.986 26.5714 122.095 26.5714 114C26.5714 111.954 27.3842 109.992 28.8309 108.545C30.2776 107.098 32.2397 106.286 34.2857 106.286C36.3317 106.286 38.2938 107.098 39.7405 108.545C41.1872 109.992 42 111.954 42 114C41.991 119.836 44.1876 125.461 48.1497 129.746C52.1118 134.032 57.5469 136.662 63.3661 137.11C69.1853 137.558 74.9589 135.791 79.5304 132.163C84.1019 128.534 87.1336 123.312 88.0183 117.543L79.6971 107.839C73.9783 101.163 78.72 90.8571 87.5143 90.8571H96Z" fill="#333333"></path>
<path d="M132 70.2857C140.521 70.2857 147.429 63.3781 147.429 54.8571C147.429 46.3362 140.521 39.4286 132 39.4286C123.479 39.4286 116.571 46.3362 116.571 54.8571C116.571 63.3781 123.479 70.2857 132 70.2857Z" fill="#333333"></path>
<path d="M60 70.2857C68.5209 70.2857 75.4286 63.3781 75.4286 54.8571C75.4286 46.3362 68.5209 39.4286 60 39.4286C51.479 39.4286 44.5714 46.3362 44.5714 54.8571C44.5714 63.3781 51.479 70.2857 60 70.2857Z" fill="#333333"></path>
</g>
<defs>
<clipPath id="SvgjsClipPath1001">
<rect width="144" height="113.143" fill="white" transform="translate(24 39.4286)"></rect>
</clipPath>
</defs>
</svg><style>@media (prefers-color-scheme: light) { :root { filter: none; } }
@media (prefers-color-scheme: dark) { :root { filter: none; } }
</style></svg>